<svg xmlns="http://www.w3.org/2000/svg" width="782.501708984375" height="575.7916870117188" viewBox="-305.16680908203125 -181.9403533935547 782.501708984375 575.7916870117188"><title>Neo4j Graph Visualization</title><desc>Created using Neo4j (http://www.neo4j.com/)</desc><g class="layer relationships"><g class="relationship" transform="translate(-100.42105419170353 -128.40905287028755) rotate(479.93246521115924)"><path class="b-outline" fill="#A5ABB6" stroke="none" d="M 25 0.5 L 111.8529350032706 0.5 L 111.8529350032706 -0.5 L 25 -0.5 Z M 147.8529350032706 0.5 L 234.7058700065412 0.5 L 234.7058700065412 3.5 L 241.7058700065412 0 L 234.7058700065412 -3.5 L 234.7058700065412 -0.5 L 147.8529350032706 -0.5 Z"/><text text-anchor="middle" pointer-events="none" font-size="8px" fill="#000000" x="129.8529350032706" y="3" transform="rotate(180 129.8529350032706 0)" font-family="Helvetica Neue, Helvetica, Arial, sans-serif">ACTION</text></g><g class="relationship" transform="translate(-100.42105419170353 -128.40905287028755) rotate(357.42646180210556)"><path class="b-outline" fill="#A5ABB6" stroke="none" d="M 24.018736134675446,-6.953439040707552 L 24.277555179777966,-5.987513214418485 A 813.3659227161828 813.3659227161828 0 0 1 213.71752138937657,-33.429213276433416 L 213.6916110031185,-34.42887754601793 A 814.3659227161828 814.3659227161828 0 0 0 24.018736134675446,-6.953439040707552 Z M 249.71053145978297,-34.56562840161996 L 249.69221244074308,-33.56579620892887 A 813.3659227161828 813.3659227161828 0 0 1 439.3350868555515,-7.563337027600788 L 438.58065541998167,-4.659747316738715 L 446.2358680868246,-6.286928629748277 L 440.34099543631123,-11.434789975416885 L 439.5865640007414,-8.531200264554812 A 814.3659227161828 814.3659227161828 0 0 0 249.71053145978297,-34.56562840161996"/><text text-anchor="middle" pointer-events="none" font-size="8px" fill="#000000" x="231.7022133884722" y="-31.196419295490955" font-family="Helvetica Neue, Helvetica, Arial, sans-serif">ACTION</text></g><g class="relationship" transform="translate(-100.42105419170353 -128.40905287028755) rotate(357.42646180210556)"><path class="b-outline" fill="#A5ABB6" stroke="none" d="M 24.018736134675446,6.953439040707552 L 24.277555179777966,5.987513214418485 A 813.3659227161828 813.3659227161828 0 0 0 213.71752138937657,33.429213276433416 L 213.6916110031185,34.42887754601793 A 814.3659227161828 814.3659227161828 0 0 1 24.018736134675446,6.953439040707552 Z M 249.71053145978297,34.56562840161996 L 249.69221244074308,33.56579620892887 A 813.3659227161828 813.3659227161828 0 0 0 439.3350868555515,7.563337027600788 L 438.58065541998167,4.659747316738715 L 446.2358680868246,6.286928629748277 L 440.34099543631123,11.434789975416885 L 439.5865640007414,8.531200264554812 A 814.3659227161828 814.3659227161828 0 0 1 249.71053145978297,34.56562840161996"/><text text-anchor="middle" pointer-events="none" font-size="8px" fill="#000000" x="231.70221338847222" y="37.196419295490955" font-family="Helvetica Neue, Helvetica, Arial, sans-serif">ACTION</text></g><g class="relationship" transform="translate(-100.42105419170353 -128.40905287028755) rotate(427.4519791711431)"><path class="b-outline" fill="#A5ABB6" stroke="none" d="M 25 0.5 L 211.67935607010276 0.5 L 211.67935607010276 -0.5 L 25 -0.5 Z M 247.67935607010276 0.5 L 434.3587121402055 0.5 L 434.3587121402055 3.5 L 441.3587121402055 0 L 434.3587121402055 -3.5 L 434.3587121402055 -0.5 L 247.67935607010276 -0.5 Z"/><text text-anchor="middle" pointer-events="none" font-size="8px" fill="#000000" x="229.67935607010276" y="3" font-family="Helvetica Neue, Helvetica, Arial, sans-serif">ACTION</text></g><g class="relationship" transform="translate(-100.42105419170353 -128.40905287028755) rotate(418.3705579448323)"><path class="b-outline" fill="#A5ABB6" stroke="none" d="M 25 0.5 L 138.8753509261017 0.5 L 138.8753509261017 -0.5 L 25 -0.5 Z M 174.8753509261017 0.5 L 288.7507018522034 0.5 L 288.7507018522034 3.5 L 295.7507018522034 0 L 288.7507018522034 -3.5 L 288.7507018522034 -0.5 L 174.8753509261017 -0.5 Z"/><text text-anchor="middle" pointer-events="none" font-size="8px" fill="#000000" x="156.8753509261017" y="3" font-family="Helvetica Neue, Helvetica, Arial, sans-serif">ACTION</text></g><g class="relationship" transform="translate(-100.42105419170353 -128.40905287028755) rotate(439.8792167552492)"><path class="b-outline" fill="#A5ABB6" stroke="none" d="M 25 0.5 L 73.98086349363562 0.5 L 73.98086349363562 -0.5 L 25 -0.5 Z M 109.98086349363562 0.5 L 158.96172698727125 0.5 L 158.96172698727125 3.5 L 165.96172698727125 0 L 158.96172698727125 -3.5 L 158.96172698727125 -0.5 L 109.98086349363562 -0.5 Z"/><text text-anchor="middle" pointer-events="none" font-size="8px" fill="#000000" x="91.98086349363562" y="3" font-family="Helvetica Neue, Helvetica, Arial, sans-serif">ACTION</text></g><g class="relationship" transform="translate(448.33486860903895 102.15784606211338) rotate(511.58516591324235)"><path class="b-outline" fill="#A5ABB6" stroke="none" d="M 5.987513214418485,-24.277555179777966 L 6.953439040707552,-24.018736134675446 A 210.0280507099803 210.0280507099803 0 0 1 188.5426854973293,-178.6064722400936 L 188.44135488031242,-179.6013250463192 A 211.0280507099803 211.0280507099803 0 0 0 5.987513214418485,-24.277555179777966 Z M 224.47828888368716,-180.17816476571727 L 224.40885104654768,-179.18057848535182 A 210.0280507099803 210.0280507099803 0 0 1 410.8527416014064,-30.483913231383934 L 407.98129966607604,-29.61510875854427 L 413.3585256939207,-23.92868279441969 L 414.6813308485136,-31.64231919517015 L 411.8098889131832,-30.773514722330486 A 211.0280507099803 211.0280507099803 0 0 0 224.47828888368716,-180.17816476571727"/><text text-anchor="middle" pointer-events="none" font-size="8px" fill="#000000" x="206.45548694458935" y="-177.1605616478535" transform="rotate(180 206.45548694458935 -180.1605616478535)" font-family="Helvetica Neue, Helvetica, Arial, sans-serif">ACTION</text></g><g class="relationship" transform="translate(448.33486860903895 102.15784606211338) rotate(511.58516591324235)"><path class="b-outline" fill="#A5ABB6" stroke="none" d="M 12.066987298107785,-21.900635094610966 L 12.933012701892222,-21.400635094610966 A 227.35123462237917 227.35123462237917 0 0 1 188.64561253193918,-134.0876013356894 L 188.5524555936456,-135.08325277311508 A 228.35123462237917 228.35123462237917 0 0 0 12.066987298107785,-21.900635094610966 Z M 224.590257532821,-135.59838671344826 L 224.52559705445483,-134.60047939183096 A 227.35123462237917 227.35123462237917 0 0 1 403.3873031406734,-26.98189272772679 L 400.8331624605639,-25.408245567080584 L 407.48483662886616,-21.28450566757903 L 406.7928240474861,-29.08008894192173 L 404.2386833673766,-27.506441781275523 A 228.35123462237917 228.35123462237917 0 0 0 224.590257532821,-135.59838671344826"/><text text-anchor="middle" pointer-events="none" font-size="8px" fill="#000000" x="206.56832391658597" y="-132.55297800091358" transform="rotate(180 206.56832391658597 -135.55297800091358)" font-family="Helvetica Neue, Helvetica, Arial, sans-serif">ACTION</text></g><g class="relationship" transform="translate(448.33486860903895 102.15784606211338) rotate(252.61595066396018)"><path class="b-outline" fill="#A5ABB6" stroke="none" d="M 21.40063509461097,-12.933012701892217 L 21.90063509461097,-12.06698729810778 A 218.42248679524522 218.42248679524522 0 0 1 110.3510216873869,-40.34116302928473 L 110.25597260563046,-41.33663561658045 A 219.42248679524522 219.42248679524522 0 0 0 21.40063509461097,-12.933012701892217 Z M 146.2945206270541,-41.80415035152424 L 146.22532697987342,-40.80654710414089 A 218.42248679524522 218.42248679524522 0 0 1 235.37940549194633,-14.836368314765481 L 233.94730669301467,-12.200255071731625 L 241.76901952551395,-11.934156657763902 L 237.28887055718857,-18.351185972143956 L 235.8567717582569,-15.7150727291101 A 219.42248679524522 219.42248679524522 0 0 0 146.2945206270541,-41.80415035152424"/><text text-anchor="middle" pointer-events="none" font-size="8px" fill="#000000" x="128.27211709949603" y="-38.811632959432586" transform="rotate(180 128.27211709949603 -41.811632959432586)" font-family="Helvetica Neue, Helvetica, Arial, sans-serif">ACTION</text></g><g class="relationship" transform="translate(448.33486860903895 102.15784606211338) rotate(511.58516591324235)"><path class="b-outline" fill="#A5ABB6" stroke="none" d="M 17.324116139070416,-18.031222920256962 L 18.031222920256962,-17.324116139070416 A 271.2373005736624 271.2373005736624 0 0 1 188.72467485596394,-95.94571269697994 L 188.64688215353684,-96.94268225290884 A 272.2373005736624 272.2373005736624 0 0 0 17.324116139070416,-18.031222920256962 Z M 224.684315479094,-97.36185015933208 L 224.6297331056237,-96.36334088821522 A 271.2373005736624 271.2373005736624 0 0 1 397.1057250231323,-21.733305439248994 L 395.0343200154832,-19.5632175852011 L 402.5144975171856,-17.26170839707573 L 399.8675983666644,-24.626755911312856 L 397.7961933590153,-22.456668057264963 A 272.2373005736624 272.2373005736624 0 0 0 224.684315479094,-97.36185015933208"/><text text-anchor="middle" pointer-events="none" font-size="8px" fill="#000000" x="206.6644701456127" y="-94.2493022496071" transform="rotate(180 206.6644701456127 -97.2493022496071)" font-family="Helvetica Neue, Helvetica, Arial, sans-serif">ACTION</text></g><g class="relationship" transform="translate(448.33486860903895 102.15784606211338) rotate(511.58516591324235)"><path class="b-outline" fill="#A5ABB6" stroke="none" d="M 21.40063509461097,-12.933012701892217 L 21.90063509461097,-12.06698729810778 A 375.8486447440317 375.8486447440317 0 0 1 188.77678180009195,-61.83132773442992 L 188.72078006651947,-62.82975840595242 A 376.8486447440317 376.8486447440317 0 0 0 21.40063509461097,-12.933012701892217 Z M 224.7536539328858,-63.12534467971528 L 224.71403936434623,-62.12612964482065 A 375.8486447440317 375.8486447440317 0 0 1 392.38413095653067,-15.106151935340147 L 390.92695523399294,-12.48381730496845 L 398.74577438115426,-12.143131021147408 L 394.3270319199143,-18.602598109169076 L 392.8698561973766,-15.98026347879738 A 376.8486447440317 376.8486447440317 0 0 0 224.7536539328858,-63.12534467971528"/><text text-anchor="middle" pointer-events="none" font-size="8px" fill="#000000" x="206.73778348279083" y="-59.90849551596318" transform="rotate(180 206.73778348279083 -62.90849551596318)" font-family="Helvetica Neue, Helvetica, Arial, sans-serif">ACTION</text></g><g class="relationship" transform="translate(448.33486860903895 102.15784606211338) rotate(511.58516591324235)"><path class="b-outline" fill="#A5ABB6" stroke="none" d="M 24.018736134675446,-6.953439040707552 L 24.277555179777966,-5.987513214418485 A 716.9001114788704 716.9001114788704 0 0 1 188.80133746079358,-30.106959325487082 L 188.7720117295387,-31.106529233740844 A 717.9001114788704 717.9001114788704 0 0 0 24.018736134675446,-6.953439040707552 Z M 224.7929989010842,-31.25923518619925 L 224.77214914609027,-30.259452565967877 A 716.9001114788704 716.9001114788704 0 0 1 389.49451621400243,-7.535799595995701 L 388.74265599301543,-4.631543028800344 L 396.3964249076228,-6.265501841558562 L 390.4969965086518,-11.40814168558951 L 389.7451362876648,-8.503885118394154 A 717.9001114788704 717.9001114788704 0 0 0 224.7929989010842,-31.25923518619925"/><text text-anchor="middle" pointer-events="none" font-size="8px" fill="#000000" x="206.78366705525778" y="-27.90884561198493" transform="rotate(180 206.78366705525778 -30.90884561198493)" font-family="Helvetica Neue, Helvetica, Arial, sans-serif">ACTION</text></g><g class="relationship" transform="translate(448.33486860903895 102.15784606211338) rotate(511.58516591324235)"><path class="b-outline" fill="#A5ABB6" stroke="none" d="M 25 0.5 L 188.79928148379227 0.5 L 188.79928148379227 -0.5 L 25 -0.5 Z M 224.79928148379227 0.5 L 388.59856296758454 0.5 L 388.59856296758454 3.5 L 395.59856296758454 0 L 388.59856296758454 -3.5 L 388.59856296758454 -0.5 L 224.79928148379227 -0.5 Z"/><text text-anchor="middle" pointer-events="none" font-size="8px" fill="#000000" x="206.79928148379227" y="3" transform="rotate(180 206.79928148379227 0)" font-family="Helvetica Neue, Helvetica, Arial, sans-serif">ACTION</text></g><g class="relationship" transform="translate(448.33486860903895 102.15784606211338) rotate(539.9525908353467)"><path class="b-outline" fill="#A5ABB6" stroke="none" d="M 17.324116139070416,-18.031222920256962 L 18.031222920256962,-17.324116139070416 A 456.2176009067524 456.2176009067524 0 0 1 319.36523632207513,-150.45149900040775 L 319.3186345560456,-151.4504125479197 A 457.2176009067524 457.2176009067524 0 0 0 17.324116139070416,-18.031222920256962 Z M 355.3477813561748,-151.71007865843012 L 355.3155822476783,-150.7105971841586 A 456.2176009067524 456.2176009067524 0 0 1 658.5371215638424,-21.940314140709766 L 656.446597182184,-19.788638558822154 L 663.9061186518567,-17.42103651382122 L 661.3244874060538,-24.809214916559913 L 659.2339630243953,-22.6575393346723 A 457.2176009067524 457.2176009067524 0 0 0 355.3477813561748,-151.71007865843012"/><text text-anchor="middle" pointer-events="none" font-size="8px" fill="#000000" x="337.33425261921815" y="-148.43529669013492" transform="rotate(180 337.33425261921815 -151.43529669013492)" font-family="Helvetica Neue, Helvetica, Arial, sans-serif">ACTION</text></g><g class="relationship" transform="translate(448.33486860903895 102.15784606211338) rotate(539.9525908353467)"><path class="b-outline" fill="#A5ABB6" stroke="none" d="M 24.018736134675446,-6.953439040707552 L 24.277555179777966,-5.987513214418485 A 1222.2756903881827 1222.2756903881827 0 0 1 319.41835113510575,-47.45155087464764 L 319.4010003596222,-48.451400338612075 A 1223.2756903881827 1223.2756903881827 0 0 0 24.018736134675446,-6.953439040707552 Z M 355.41429562216604,-48.546152959314895 L 355.4022063494695,-47.54622603724215 A 1222.2756903881827 1222.2756903881827 0 0 1 650.7571022015796,-7.635809446800202 L 649.9959040796934,-4.733986326891431 L 657.6548891683477,-6.343317682384095 L 651.7720330307611,-11.504906940011898 L 651.0108349088749,-8.603083820103127 A 1223.2756903881827 1223.2756903881827 0 0 0 355.41429562216604,-48.546152959314895"/><text text-anchor="middle" pointer-events="none" font-size="8px" fill="#000000" x="337.4086147988098" y="-45.13131516164708" transform="rotate(180 337.4086147988098 -48.13131516164708)" font-family="Helvetica Neue, Helvetica, Arial, sans-serif">ACTION</text></g><g class="relationship" transform="translate(448.33486860903895 102.15784606211338) rotate(252.61595066396018)"><path class="b-outline" fill="#A5ABB6" stroke="none" d="M 25 0.5 L 110.36831494206473 0.5 L 110.36831494206473 -0.5 L 25 -0.5 Z M 146.36831494206473 0.5 L 231.73662988412946 0.5 L 231.73662988412946 3.5 L 238.73662988412946 0 L 231.73662988412946 -3.5 L 231.73662988412946 -0.5 L 146.36831494206473 -0.5 Z"/><text text-anchor="middle" pointer-events="none" font-size="8px" fill="#000000" x="128.36831494206473" y="3" transform="rotate(180 128.36831494206473 0)" font-family="Helvetica Neue, Helvetica, Arial, sans-serif">ACTION</text></g><g class="relationship" transform="translate(448.33486860903895 102.15784606211338) rotate(511.58516591324235)"><path class="b-outline" fill="#A5ABB6" stroke="none" d="M 24.018736134675446,6.953439040707552 L 24.277555179777966,5.987513214418485 A 716.9001114788704 716.9001114788704 0 0 0 188.8013374607938,30.106959325487082 L 188.7720117295389,31.106529233740844 A 717.9001114788704 717.9001114788704 0 0 1 24.018736134675446,6.953439040707552 Z M 224.7929989010843,31.25923518619925 L 224.77214914609036,30.259452565967877 A 716.9001114788704 716.9001114788704 0 0 0 389.49451621400243,7.535799595995701 L 388.74265599301543,4.631543028800344 L 396.3964249076228,6.265501841558562 L 390.4969965086518,11.40814168558951 L 389.7451362876648,8.503885118394154 A 717.9001114788704 717.9001114788704 0 0 1 224.7929989010843,31.25923518619925"/><text text-anchor="middle" pointer-events="none" font-size="8px" fill="#000000" x="206.78366705525795" y="33.90884561198493" transform="rotate(180 206.78366705525795 30.90884561198493)" font-family="Helvetica Neue, Helvetica, Arial, sans-serif">ACTION</text></g><g class="relationship" transform="translate(448.33486860903895 102.15784606211338) rotate(539.9525908353467)"><path class="b-outline" fill="#A5ABB6" stroke="none" d="M 24.018736134675446,6.953439040707552 L 24.277555179777966,5.987513214418485 A 1222.2756903881827 1222.2756903881827 0 0 0 319.418351135106,47.45155087464764 L 319.4010003596224,48.451400338612075 A 1223.2756903881827 1223.2756903881827 0 0 1 24.018736134675446,6.953439040707552 Z M 355.4142956221659,48.546152959314895 L 355.40220634946945,47.54622603724215 A 1222.2756903881827 1222.2756903881827 0 0 0 650.7571022015796,7.635809446800202 L 649.9959040796934,4.733986326891431 L 657.6548891683477,6.343317682384095 L 651.7720330307611,11.504906940011898 L 651.0108349088749,8.603083820103127 A 1223.2756903881827 1223.2756903881827 0 0 1 355.4142956221659,48.546152959314895"/><text text-anchor="middle" pointer-events="none" font-size="8px" fill="#000000" x="337.4086147988099" y="51.13131516164708" transform="rotate(180 337.4086147988099 48.13131516164708)" font-family="Helvetica Neue, Helvetica, Arial, sans-serif">ACTION</text></g><g class="relationship" transform="translate(448.33486860903895 102.15784606211338) rotate(533.6217752932228)"><path class="b-outline" fill="#A5ABB6" stroke="none" d="M 21.40063509461097,-12.933012701892217 L 21.90063509461097,-12.06698729810778 A 338.07361814017946 338.07361814017946 0 0 1 169.935682777066,-56.70729898030595 L 169.87356091880574,-57.70536755246235 A 339.07361814017946 339.07361814017946 0 0 0 21.40063509461097,-12.933012701892217 Z M 205.90828518619955,-58.02960488398162 L 205.86413300148044,-57.030580067180495 A 338.07361814017946 338.07361814017946 0 0 1 354.67848635517703,-15.061293614447393 L 353.2254799677702,-12.436646507090893 L 361.04483067024336,-12.108386561724117 L 356.6158282050528,-18.560823090922725 L 355.162821817646,-15.936175983566226 A 339.07361814017946 339.07361814017946 0 0 0 205.90828518619955,-58.02960488398162"/><text text-anchor="middle" pointer-events="none" font-size="8px" fill="#000000" x="187.89111135616432" y="-54.84655873743168" transform="rotate(180 187.89111135616432 -57.84655873743168)" font-family="Helvetica Neue, Helvetica, Arial, sans-serif">ACTION</text></g><g class="relationship" transform="translate(448.33486860903895 102.15784606211338) rotate(533.6217752932228)"><path class="b-outline" fill="#A5ABB6" stroke="none" d="M 25 0.5 L 169.95844494910727 0.5 L 169.95844494910727 -0.5 L 25 -0.5 Z M 205.95844494910727 0.5 L 350.91688989821455 0.5 L 350.91688989821455 3.5 L 357.91688989821455 0 L 350.91688989821455 -3.5 L 350.91688989821455 -0.5 L 205.95844494910727 -0.5 Z"/><text text-anchor="middle" pointer-events="none" font-size="8px" fill="#000000" x="187.95844494910727" y="3" transform="rotate(180 187.95844494910727 0)" font-family="Helvetica Neue, Helvetica, Arial, sans-serif">ACTION</text></g><g class="relationship" transform="translate(448.33486860903895 102.15784606211338) rotate(533.6217752932228)"><path class="b-outline" fill="#A5ABB6" stroke="none" d="M 21.40063509461097,12.933012701892217 L 21.90063509461097,12.06698729810778 A 338.07361814017946 338.07361814017946 0 0 0 169.93568277706595,56.70729898030595 L 169.8735609188057,57.70536755246235 A 339.07361814017946 339.07361814017946 0 0 1 21.40063509461097,12.933012701892217 Z M 205.90828518619958,58.02960488398162 L 205.86413300148047,57.030580067180495 A 338.07361814017946 338.07361814017946 0 0 0 354.67848635517703,15.061293614447393 L 353.2254799677702,12.436646507090893 L 361.04483067024336,12.108386561724117 L 356.6158282050528,18.560823090922725 L 355.162821817646,15.936175983566226 A 339.07361814017946 339.07361814017946 0 0 1 205.90828518619958,58.02960488398162"/><text text-anchor="middle" pointer-events="none" font-size="8px" fill="#000000" x="187.89111135616432" y="60.84655873743168" transform="rotate(180 187.89111135616432 57.84655873743168)" font-family="Helvetica Neue, Helvetica, Arial, sans-serif">ACTION</text></g><g class="relationship" transform="translate(448.33486860903895 102.15784606211338) rotate(511.58516591324235)"><path class="b-outline" fill="#A5ABB6" stroke="none" d="M 21.40063509461097,12.933012701892217 L 21.90063509461097,12.06698729810778 A 375.8486447440317 375.8486447440317 0 0 0 188.77678180009212,61.83132773442992 L 188.72078006651964,62.82975840595242 A 376.8486447440317 376.8486447440317 0 0 1 21.40063509461097,12.933012701892217 Z M 224.75365393288595,63.12534467971528 L 224.71403936434638,62.12612964482065 A 375.8486447440317 375.8486447440317 0 0 0 392.38413095653067,15.106151935340147 L 390.92695523399294,12.48381730496845 L 398.74577438115426,12.143131021147408 L 394.3270319199143,18.602598109169076 L 392.8698561973766,15.98026347879738 A 376.8486447440317 376.8486447440317 0 0 1 224.75365393288595,63.12534467971528"/><text text-anchor="middle" pointer-events="none" font-size="8px" fill="#000000" x="206.73778348279097" y="65.90849551596318" transform="rotate(180 206.73778348279097 62.90849551596318)" font-family="Helvetica Neue, Helvetica, Arial, sans-serif">ACTION</text></g><g class="relationship" transform="translate(448.33486860903895 102.15784606211338) rotate(252.61595066396018)"><path class="b-outline" fill="#A5ABB6" stroke="none" d="M 21.40063509461097,12.933012701892217 L 21.90063509461097,12.06698729810778 A 218.42248679524522 218.42248679524522 0 0 0 110.351021687387,40.34116302928476 L 110.25597260563056,41.33663561658048 A 219.42248679524522 219.42248679524522 0 0 1 21.40063509461097,12.933012701892217 Z M 146.2945206270541,41.80415035152424 L 146.22532697987342,40.80654710414089 A 218.42248679524522 218.42248679524522 0 0 0 235.37940549194633,14.836368314765481 L 233.94730669301467,12.200255071731625 L 241.76901952551395,11.934156657763902 L 237.28887055718857,18.351185972143956 L 235.8567717582569,15.7150727291101 A 219.42248679524522 219.42248679524522 0 0 1 146.2945206270541,41.80415035152424"/><text text-anchor="middle" pointer-events="none" font-size="8px" fill="#000000" x="128.27211709949609" y="44.811632959432586" transform="rotate(180 128.27211709949609 41.811632959432586)" font-family="Helvetica Neue, Helvetica, Arial, sans-serif">ACTION</text></g><g class="relationship" transform="translate(448.33486860903895 102.15784606211338) rotate(184.72424941843434)"><path class="b-outline" fill="#A5ABB6" stroke="none" d="M 25 0.5 L 236.97784628046105 0.5 L 236.97784628046105 -0.5 L 25 -0.5 Z M 272.97784628046105 0.5 L 484.9556925609221 0.5 L 484.9556925609221 3.5 L 491.9556925609221 0 L 484.9556925609221 -3.5 L 484.9556925609221 -0.5 L 272.97784628046105 -0.5 Z"/><text text-anchor="middle" pointer-events="none" font-size="8px" fill="#000000" x="254.97784628046105" y="3" transform="rotate(180 254.97784628046105 0)" font-family="Helvetica Neue, Helvetica, Arial, sans-serif">ACTION</text></g><g class="relationship" transform="translate(448.33486860903895 102.15784606211338) rotate(539.9525908353467)"><path class="b-outline" fill="#A5ABB6" stroke="none" d="M 17.324116139070416,18.031222920256962 L 18.031222920256962,17.324116139070416 A 456.2176009067524 456.2176009067524 0 0 0 319.36523632207513,150.45149900040775 L 319.3186345560456,151.4504125479197 A 457.2176009067524 457.2176009067524 0 0 1 17.324116139070416,18.031222920256962 Z M 355.3477813561748,151.71007865843012 L 355.31558224767826,150.7105971841586 A 456.2176009067524 456.2176009067524 0 0 0 658.5371215638424,21.940314140709766 L 656.446597182184,19.788638558822154 L 663.9061186518567,17.42103651382122 L 661.3244874060538,24.809214916559913 L 659.2339630243953,22.6575393346723 A 457.2176009067524 457.2176009067524 0 0 1 355.3477813561748,151.71007865843012"/><text text-anchor="middle" pointer-events="none" font-size="8px" fill="#000000" x="337.3342526192181" y="154.43529669013492" transform="rotate(180 337.3342526192181 151.43529669013492)" font-family="Helvetica Neue, Helvetica, Arial, sans-serif">ACTION</text></g><g class="relationship" transform="translate(448.33486860903895 102.15784606211338) rotate(511.58516591324235)"><path class="b-outline" fill="#A5ABB6" stroke="none" d="M 17.324116139070416,18.031222920256962 L 18.031222920256962,17.324116139070416 A 271.2373005736624 271.2373005736624 0 0 0 188.724674855964,95.94571269697994 L 188.64688215353686,96.94268225290884 A 272.2373005736624 272.2373005736624 0 0 1 17.324116139070416,18.031222920256962 Z M 224.68431547909395,97.36185015933208 L 224.62973310562361,96.36334088821522 A 271.2373005736624 271.2373005736624 0 0 0 397.1057250231323,21.733305439248994 L 395.0343200154832,19.5632175852011 L 402.5144975171856,17.26170839707573 L 399.8675983666644,24.626755911312856 L 397.7961933590153,22.456668057264963 A 272.2373005736624 272.2373005736624 0 0 1 224.68431547909395,97.36185015933208"/><text text-anchor="middle" pointer-events="none" font-size="8px" fill="#000000" x="206.66447014561268" y="100.2493022496071" transform="rotate(180 206.66447014561268 97.2493022496071)" font-family="Helvetica Neue, Helvetica, Arial, sans-serif">ACTION</text></g><g class="relationship" transform="translate(448.33486860903895 102.15784606211338) rotate(511.58516591324235)"><path class="b-outline" fill="#A5ABB6" stroke="none" d="M 12.066987298107785,21.900635094610966 L 12.933012701892222,21.400635094610966 A 227.35123462237917 227.35123462237917 0 0 0 188.64561253193924,134.0876013356894 L 188.55245559364565,135.08325277311508 A 228.35123462237917 228.35123462237917 0 0 1 12.066987298107785,21.900635094610966 Z M 224.59025753282097,135.59838671344826 L 224.52559705445478,134.60047939183096 A 227.35123462237917 227.35123462237917 0 0 0 403.3873031406734,26.98189272772679 L 400.8331624605639,25.408245567080584 L 407.48483662886616,21.28450566757903 L 406.7928240474861,29.08008894192173 L 404.2386833673766,27.506441781275523 A 228.35123462237917 228.35123462237917 0 0 1 224.59025753282097,135.59838671344826"/><text text-anchor="middle" pointer-events="none" font-size="8px" fill="#000000" x="206.56832391658597" y="138.55297800091358" transform="rotate(180 206.56832391658597 135.55297800091358)" font-family="Helvetica Neue, Helvetica, Arial, sans-serif">ACTION</text></g><g class="relationship" transform="translate(448.33486860903895 102.15784606211338) rotate(511.58516591324235)"><path class="b-outline" fill="#A5ABB6" stroke="none" d="M 5.987513214418485,24.277555179777966 L 6.953439040707552,24.018736134675446 A 210.0280507099803 210.0280507099803 0 0 0 188.5426854973294,178.6064722400936 L 188.44135488031247,179.6013250463192 A 211.0280507099803 211.0280507099803 0 0 1 5.987513214418485,24.277555179777966 Z M 224.47828888368713,180.1781647657173 L 224.40885104654768,179.18057848535184 A 210.0280507099803 210.0280507099803 0 0 0 410.8527416014064,30.483913231383934 L 407.98129966607604,29.61510875854427 L 413.3585256939207,23.92868279441969 L 414.6813308485136,31.64231919517015 L 411.8098889131832,30.773514722330486 A 211.0280507099803 211.0280507099803 0 0 1 224.47828888368713,180.1781647657173"/><text text-anchor="middle" pointer-events="none" font-size="8px" fill="#000000" x="206.45548694458938" y="183.1605616478535" transform="rotate(180 206.45548694458938 180.1605616478535)" font-family="Helvetica Neue, Helvetica, Arial, sans-serif">ACTION</text></g><g class="relationship" transform="translate(-276.1668012234832 185.71221789699987) rotate(378.2014712332526)"><path class="b-outline" fill="#A5ABB6" stroke="none" d="M 21.40063509461097,-12.933012701892217 L 21.90063509461097,-12.06698729810778 A 328.38024245409326 328.38024245409326 0 0 1 165.10248855367584,-55.3901836914859 L 165.0385740269944,-56.388139067882605 A 329.38024245409326 329.38024245409326 0 0 0 21.40063509461097,-12.933012701892217 Z M 201.07377354887825,-56.7206436366921 L 201.02828503652674,-55.72167877482559 A 328.38024245409326 328.38024245409326 0 0 1 345.00519264086574,-15.048342834159463 L 343.55338998247566,-12.423029702151863 L 351.3728903919485,-12.098355486583921 L 346.94092951871914,-18.54876034350293 L 345.48912686032907,-15.92344721149533 A 329.38024245409326 329.38024245409326 0 0 0 201.07377354887825,-56.7206436366921"/><text text-anchor="middle" pointer-events="none" font-size="8px" fill="#000000" x="183.0562364725968" y="-53.547597899028574" font-family="Helvetica Neue, Helvetica, Arial, sans-serif">ACTION</text></g><g class="relationship" transform="translate(-276.1668012234832 185.71221789699987) rotate(378.2014712332526)"><path class="b-outline" fill="#A5ABB6" stroke="none" d="M 25 0.5 L 165.12524991267264 0.5 L 165.12524991267264 -0.5 L 25 -0.5 Z M 201.12524991267264 0.5 L 341.2504998253453 0.5 L 341.2504998253453 3.5 L 348.2504998253453 0 L 341.2504998253453 -3.5 L 341.2504998253453 -0.5 L 201.12524991267264 -0.5 Z"/><text text-anchor="middle" pointer-events="none" font-size="8px" fill="#000000" x="183.12524991267264" y="3" font-family="Helvetica Neue, Helvetica, Arial, sans-serif">ACTION</text></g><g class="relationship" transform="translate(-276.1668012234832 185.71221789699987) rotate(378.2014712332526)"><path class="b-outline" fill="#A5ABB6" stroke="none" d="M 21.40063509461097,12.933012701892217 L 21.90063509461097,12.06698729810778 A 328.38024245409326 328.38024245409326 0 0 0 165.1024885536759,55.3901836914859 L 165.0385740269945,56.388139067882605 A 329.38024245409326 329.38024245409326 0 0 1 21.40063509461097,12.933012701892217 Z M 201.07377354887828,56.7206436366921 L 201.02828503652674,55.72167877482559 A 328.38024245409326 328.38024245409326 0 0 0 345.00519264086574,15.048342834159463 L 343.55338998247566,12.423029702151863 L 351.3728903919485,12.098355486583921 L 346.94092951871914,18.54876034350293 L 345.48912686032907,15.92344721149533 A 329.38024245409326 329.38024245409326 0 0 1 201.07377354887828,56.7206436366921"/><text text-anchor="middle" pointer-events="none" font-size="8px" fill="#000000" x="183.05623647259682" y="59.547597899028574" font-family="Helvetica Neue, Helvetica, Arial, sans-serif">ACTION</text></g><g class="relationship" transform="translate(-276.1668012234832 185.71221789699987) rotate(297.2076406271158)"><path class="b-outline" fill="#A5ABB6" stroke="none" d="M 25 0.5 L 25.157493680088827 0.5 L 25.157493680088827 -0.5 L 25 -0.5 Z M 61.15749368008883 0.5 L 61.31498736017765 0.5 L 61.31498736017765 3.5 L 68.31498736017765 0 L 61.31498736017765 -3.5 L 61.31498736017765 -0.5 L 61.15749368008883 -0.5 Z"/><text text-anchor="middle" pointer-events="none" font-size="8px" fill="#000000" x="43.15749368008883" y="3" font-family="Helvetica Neue, Helvetica, Arial, sans-serif">ACTION</text></g><g class="relationship" transform="translate(-276.1668012234832 185.71221789699987) rotate(353.1997513847143)"><path class="b-outline" fill="#A5ABB6" stroke="none" d="M 25 0.5 L 151.6959115220023 0.5 L 151.6959115220023 -0.5 L 25 -0.5 Z M 187.6959115220023 0.5 L 314.3918230440046 0.5 L 314.3918230440046 3.5 L 321.3918230440046 0 L 314.3918230440046 -3.5 L 314.3918230440046 -0.5 L 187.6959115220023 -0.5 Z"/><text text-anchor="middle" pointer-events="none" font-size="8px" fill="#000000" x="169.6959115220023" y="3" font-family="Helvetica Neue, Helvetica, Arial, sans-serif">ACTION</text></g><g class="relationship" transform="translate(241.51664220676844 -73.54810459167737) rotate(519.6410804092832)"><path class="b-outline" fill="#A5ABB6" stroke="none" d="M 25 0.5 L 231.83452913855004 0.5 L 231.83452913855004 -0.5 L 25 -0.5 Z M 267.83452913855 0.5 L 474.6690582771001 0.5 L 474.6690582771001 3.5 L 481.6690582771001 0 L 474.6690582771001 -3.5 L 474.6690582771001 -0.5 L 267.83452913855 -0.5 Z"/><text text-anchor="middle" pointer-events="none" font-size="8px" fill="#000000" x="249.83452913855004" y="3" transform="rotate(180 249.83452913855004 0)" font-family="Helvetica Neue, Helvetica, Arial, sans-serif">ACTION</text></g><g class="relationship" transform="translate(241.51664220676844 -73.54810459167737) rotate(488.5207114122683)"><path class="b-outline" fill="#A5ABB6" stroke="none" d="M 25 0.5 L 117.97429961297249 0.5 L 117.97429961297249 -0.5 L 25 -0.5 Z M 153.9742996129725 0.5 L 246.94859922594497 0.5 L 246.94859922594497 3.5 L 253.94859922594497 0 L 246.94859922594497 -3.5 L 246.94859922594497 -0.5 L 153.9742996129725 -0.5 Z"/><text text-anchor="middle" pointer-events="none" font-size="8px" fill="#000000" x="135.9742996129725" y="3" transform="rotate(180 135.9742996129725 0)" font-family="Helvetica Neue, Helvetica, Arial, sans-serif">ACTION</text></g><g class="relationship" transform="translate(241.51664220676844 -73.54810459167737) rotate(329.30951624846597)"><path class="b-outline" fill="#A5ABB6" stroke="none" d="M 24.018736134675446,-6.953439040707552 L 24.277555179777966,-5.987513214418485 A 188.61907390188048 188.61907390188048 0 0 1 52.986021917180544,-11.339482097018589 L 52.879406284720886,-12.333782407244428 A 189.61907390188048 189.61907390188048 0 0 0 24.018736134675446,-6.953439040707552 Z M 88.91767037131208,-12.753305599021644 L 88.83422989103468,-11.756792836308051 A 188.61907390188048 188.61907390188048 0 0 1 117.65950506205375,-7.074577052312053 L 116.95071553671575,-4.159509744552054 L 124.57946036771675,-5.906579377816708 L 118.60455776250443,-10.961333462658718 L 117.89576823716642,-8.046266154898719 A 189.61907390188048 189.61907390188048 0 0 0 88.91767037131208,-12.753305599021644"/><text text-anchor="middle" pointer-events="none" font-size="8px" fill="#000000" x="70.89436855717713" y="-9.901739463204137" font-family="Helvetica Neue, Helvetica, Arial, sans-serif">ACTION</text></g><g class="relationship" transform="translate(241.51664220676844 -73.54810459167737) rotate(516.649959579176)"><path class="b-outline" fill="#A5ABB6" stroke="none" d="M 24.018736134675446,-6.953439040707552 L 24.277555179777966,-5.987513214418485 A 552.7943351401582 552.7943351401582 0 0 1 146.44969620050375,-24.428230376600936 L 146.41188546401523,-25.42751529503323 A 553.7943351401582 553.7943351401582 0 0 0 24.018736134675446,-6.953439040707552 Z M 182.4375587559149,-25.61799699337257 L 182.41031705144124,-24.61836811747048 A 552.7943351401582 552.7943351401582 0 0 1 304.770628247188,-7.470588811574066 L 304.0248570134424,-4.5647627212999815 L 311.67518433011844,-6.214760281213345 L 305.7649898921821,-11.345023598606177 L 305.0192186584365,-8.439197508332093 A 553.7943351401582 553.7943351401582 0 0 0 182.4375587559149,-25.61799699337257"/><text text-anchor="middle" pointer-events="none" font-size="8px" fill="#000000" x="164.42581642282866" y="-22.315789500969117" transform="rotate(180 164.42581642282866 -25.315789500969117)" font-family="Helvetica Neue, Helvetica, Arial, sans-serif">ACTION</text></g><g class="relationship" transform="translate(241.51664220676844 -73.54810459167737) rotate(473.45963832802045)"><path class="b-outline" fill="#A5ABB6" stroke="none" d="M 5.987513214418485,-24.277555179777966 L 6.953439040707552,-24.018736134675446 A 204.38144580036573 204.38144580036573 0 0 1 183.09556486099171,-174.39202927467838 L 182.991469349732,-175.38659657985966 A 205.38144580036573 205.38144580036573 0 0 0 5.987513214418485,-24.277555179777966 Z M 219.0280544506134,-175.97868561212994 L 218.9566882254906,-174.98123543196468 A 204.38144580036573 204.38144580036573 0 0 1 399.9437389292835,-30.475653339813018 L 397.0730333883299,-29.604418757660483 L 402.45507054446495,-23.92254617461346 L 403.7713463172215,-31.637299449349733 L 400.90064077626795,-30.766064867197198 A 205.38144580036573 205.38144580036573 0 0 0 219.0280544506134,-175.97868561212994"/><text text-anchor="middle" pointer-events="none" font-size="8px" fill="#000000" x="201.00496293340035" y="-172.97472280172218" transform="rotate(180 201.00496293340035 -175.97472280172218)" font-family="Helvetica Neue, Helvetica, Arial, sans-serif">ACTION</text></g><g class="relationship" transform="translate(241.51664220676844 -73.54810459167737) rotate(329.30951624846597)"><path class="b-outline" fill="#A5ABB6" stroke="none" d="M 24.018736134675446,6.953439040707552 L 24.277555179777966,5.987513214418485 A 188.61907390188048 188.61907390188048 0 0 0 52.98602191718052,11.339482097018589 L 52.879406284720865,12.333782407244428 A 189.61907390188048 189.61907390188048 0 0 1 24.018736134675446,6.953439040707552 Z M 88.91767037131208,12.753305599021644 L 88.83422989103468,11.756792836308051 A 188.61907390188048 188.61907390188048 0 0 0 117.65950506205375,7.074577052312053 L 116.95071553671575,4.159509744552054 L 124.57946036771675,5.906579377816708 L 118.60455776250443,10.961333462658718 L 117.89576823716642,8.046266154898719 A 189.61907390188048 189.61907390188048 0 0 1 88.91767037131208,12.753305599021644"/><text text-anchor="middle" pointer-events="none" font-size="8px" fill="#000000" x="70.89436855717712" y="15.901739463204137" font-family="Helvetica Neue, Helvetica, Arial, sans-serif">ACTION</text></g><g class="relationship" transform="translate(241.51664220676844 -73.54810459167737) rotate(516.649959579176)"><path class="b-outline" fill="#A5ABB6" stroke="none" d="M 24.018736134675446,6.953439040707552 L 24.277555179777966,5.987513214418485 A 552.7943351401582 552.7943351401582 0 0 0 146.44969620050372,24.428230376600936 L 146.4118854640152,25.42751529503323 A 553.7943351401582 553.7943351401582 0 0 1 24.018736134675446,6.953439040707552 Z M 182.43755875591503,25.61799699337257 L 182.41031705144138,24.61836811747048 A 552.7943351401582 552.7943351401582 0 0 0 304.770628247188,7.470588811574066 L 304.0248570134424,4.5647627212999815 L 311.67518433011844,6.214760281213345 L 305.7649898921821,11.345023598606177 L 305.0192186584365,8.439197508332093 A 553.7943351401582 553.7943351401582 0 0 1 182.43755875591503,25.61799699337257"/><text text-anchor="middle" pointer-events="none" font-size="8px" fill="#000000" x="164.42581642282872" y="28.315789500969117" transform="rotate(180 164.42581642282872 25.315789500969117)" font-family="Helvetica Neue, Helvetica, Arial, sans-serif">ACTION</text></g><g class="relationship" transform="translate(241.51664220676844 -73.54810459167737) rotate(473.45963832802045)"><path class="b-outline" fill="#A5ABB6" stroke="none" d="M 17.324116139070416,-18.031222920256962 L 18.031222920256962,-17.324116139070416 A 263.523894821971 263.523894821971 0 0 1 183.2819528294915,-93.66329470024303 L 183.2019266780174,-94.66008746460292 A 264.523894821971 264.523894821971 0 0 0 17.324116139070416,-18.031222920256962 Z M 219.23960115794216,-95.09025963331138 L 219.1833913202094,-94.0918406560568 A 263.523894821971 263.523894821971 0 0 1 386.2092576680315,-21.718959756587584 L 384.1391778162141,-19.547607779799918 L 391.6207589225056,-17.250665431811626 L 388.9693641371214,-24.614095725637803 L 386.89928428530396,-22.442743748850138 A 264.523894821971 264.523894821971 0 0 0 219.23960115794216,-95.09025963331138"/><text text-anchor="middle" pointer-events="none" font-size="8px" fill="#000000" x="201.21939720263143" y="-91.9896701305905" transform="rotate(180 201.21939720263143 -94.9896701305905)" font-family="Helvetica Neue, Helvetica, Arial, sans-serif">ACTION</text></g><g class="relationship" transform="translate(241.51664220676844 -73.54810459167737) rotate(473.45963832802045)"><path class="b-outline" fill="#A5ABB6" stroke="none" d="M 24.018736134675446,-6.953439040707552 L 24.277555179777966,-5.987513214418485 A 695.8266950658438 695.8266950658438 0 0 1 183.3599493435737,-29.379945077949742 L 183.32975388433223,-30.379489091108326 A 696.8266950658438 696.8266950658438 0 0 0 24.018736134675446,-6.953439040707552 Z M 219.35125093083386,-30.5361877117507 L 219.32975276624953,-29.536418823997337 A 695.8266950658438 695.8266950658438 0 0 1 378.60964311904985,-7.528908047557078 L 377.8584263790152,-4.624484970680763 L 385.5118330884337,-6.260139500288898 L 379.6112654390961,-11.401472150058831 L 378.86004869906145,-8.497049073182517 A 696.8266950658438 696.8266950658438 0 0 0 219.35125093083386,-30.5361877117507"/><text text-anchor="middle" pointer-events="none" font-size="8px" fill="#000000" x="201.34166473921778" y="-27.19064443778427" transform="rotate(180 201.34166473921778 -30.19064443778427)" font-family="Helvetica Neue, Helvetica, Arial, sans-serif">ACTION</text></g><g class="relationship" transform="translate(241.51664220676844 -73.54810459167737) rotate(473.45963832802045)"><path class="b-outline" fill="#A5ABB6" stroke="none" d="M 24.018736134675446,6.953439040707552 L 24.277555179777966,5.987513214418485 A 695.8266950658438 695.8266950658438 0 0 0 183.35994934357396,29.379945077949742 L 183.3297538843325,30.379489091108326 A 696.8266950658438 696.8266950658438 0 0 1 24.018736134675446,6.953439040707552 Z M 219.35125093083423,30.5361877117507 L 219.32975276624992,29.536418823997337 A 695.8266950658438 695.8266950658438 0 0 0 378.60964311904985,7.528908047557078 L 377.8584263790152,4.624484970680763 L 385.5118330884337,6.260139500288898 L 379.6112654390961,11.401472150058831 L 378.86004869906145,8.497049073182517 A 696.8266950658438 696.8266950658438 0 0 1 219.35125093083423,30.5361877117507"/><text text-anchor="middle" pointer-events="none" font-size="8px" fill="#000000" x="201.3416647392181" y="33.19064443778427" transform="rotate(180 201.3416647392181 30.19064443778427)" font-family="Helvetica Neue, Helvetica, Arial, sans-serif">ACTION</text></g><g class="relationship" transform="translate(241.51664220676844 -73.54810459167737) rotate(473.45963832802045)"><path class="b-outline" fill="#A5ABB6" stroke="none" d="M 17.324116139070416,18.031222920256962 L 18.031222920256962,17.324116139070416 A 263.523894821971 263.523894821971 0 0 0 183.28195282949156,93.66329470024303 L 183.20192667801743,94.66008746460292 A 264.523894821971 264.523894821971 0 0 1 17.324116139070416,18.031222920256962 Z M 219.23960115794225,95.09025963331138 L 219.1833913202095,94.0918406560568 A 263.523894821971 263.523894821971 0 0 0 386.2092576680315,21.718959756587584 L 384.1391778162141,19.547607779799918 L 391.6207589225056,17.250665431811626 L 388.9693641371214,24.614095725637803 L 386.89928428530396,22.442743748850138 A 264.523894821971 264.523894821971 0 0 1 219.23960115794225,95.09025963331138"/><text text-anchor="middle" pointer-events="none" font-size="8px" fill="#000000" x="201.21939720263148" y="97.9896701305905" transform="rotate(180 201.21939720263148 94.9896701305905)" font-family="Helvetica Neue, Helvetica, Arial, sans-serif">ACTION</text></g><g class="relationship" transform="translate(241.51664220676844 -73.54810459167737) rotate(473.45963832802045)"><path class="b-outline" fill="#A5ABB6" stroke="none" d="M 5.987513214418485,24.277555179777966 L 6.953439040707552,24.018736134675446 A 204.38144580036573 204.38144580036573 0 0 0 183.09556486099171,174.39202927467838 L 182.991469349732,175.38659657985966 A 205.38144580036573 205.38144580036573 0 0 1 5.987513214418485,24.277555179777966 Z M 219.02805445061347,175.97868561212994 L 218.95668822549067,174.98123543196468 A 204.38144580036573 204.38144580036573 0 0 0 399.9437389292835,30.475653339813018 L 397.0730333883299,29.604418757660483 L 402.45507054446495,23.92254617461346 L 403.7713463172215,31.637299449349733 L 400.90064077626795,30.766064867197198 A 205.38144580036573 205.38144580036573 0 0 1 219.02805445061347,175.97868561212994"/><text text-anchor="middle" pointer-events="none" font-size="8px" fill="#000000" x="201.00496293340038" y="178.97472280172218" transform="rotate(180 201.00496293340038 175.97472280172218)" font-family="Helvetica Neue, Helvetica, Arial, sans-serif">ACTION</text></g><g class="relationship" transform="translate(-227.5270117691299 -95.8107398550097) rotate(412.458963441169)"><path class="b-outline" fill="#A5ABB6" stroke="none" d="M 25 0.5 L 229.54214107876786 0.5 L 229.54214107876786 -0.5 L 25 -0.5 Z M 265.5421410787678 0.5 L 470.0842821575357 0.5 L 470.0842821575357 3.5 L 477.0842821575357 0 L 470.0842821575357 -3.5 L 470.0842821575357 -0.5 L 265.5421410787678 -0.5 Z"/><text text-anchor="middle" pointer-events="none" font-size="8px" fill="#000000" x="247.54214107876786" y="3" font-family="Helvetica Neue, Helvetica, Arial, sans-serif">ACTION</text></g><g class="relationship" transform="translate(-227.5270117691299 -95.8107398550097) rotate(404.0446232230063)"><path class="b-outline" fill="#A5ABB6" stroke="none" d="M 25 0.5 L 90.25765430040919 0.5 L 90.25765430040919 -0.5 L 25 -0.5 Z M 126.25765430040919 0.5 L 191.51530860081837 0.5 L 191.51530860081837 3.5 L 198.51530860081837 0 L 191.51530860081837 -3.5 L 191.51530860081837 -0.5 L 126.25765430040919 -0.5 Z"/><text text-anchor="middle" pointer-events="none" font-size="8px" fill="#000000" x="108.25765430040919" y="3" font-family="Helvetica Neue, Helvetica, Arial, sans-serif">ACTION</text></g><g class="relationship" transform="translate(-227.5270117691299 -95.8107398550097) rotate(354.85859337877764)"><path class="b-outline" fill="#A5ABB6" stroke="none" d="M 25 0.5 L 278.2379442194084 0.5 L 278.2379442194084 -0.5 L 25 -0.5 Z M 314.2379442194084 0.5 L 567.4758884388168 0.5 L 567.4758884388168 3.5 L 574.4758884388168 0 L 567.4758884388168 -3.5 L 567.4758884388168 -0.5 L 314.2379442194084 -0.5 Z"/><text text-anchor="middle" pointer-events="none" font-size="8px" fill="#000000" x="296.2379442194084" y="3" font-family="Helvetica Neue, Helvetica, Arial, sans-serif">ACTION</text></g><g class="relationship" transform="translate(-227.5270117691299 -95.8107398550097) rotate(451.7237359361756)"><path class="b-outline" fill="#A5ABB6" stroke="none" d="M 25 0.5 L 77.8113243909431 0.5 L 77.8113243909431 -0.5 L 25 -0.5 Z M 113.8113243909431 0.5 L 166.6226487818862 0.5 L 166.6226487818862 3.5 L 173.6226487818862 0 L 166.6226487818862 -3.5 L 166.6226487818862 -0.5 L 113.8113243909431 -0.5 Z"/><text text-anchor="middle" pointer-events="none" font-size="8px" fill="#000000" x="95.8113243909431" y="3" transform="rotate(180 95.8113243909431 0)" font-family="Helvetica Neue, Helvetica, Arial, sans-serif">ACTION</text></g></g><g class="layer nodes"><g class="node" aria-label="graph-node3" transform="translate(-100.42105419170353,-128.40905287028755)"><circle class="b-outline" cx="0" cy="0" r="25" fill="#C990C0" stroke="#b261a5" stroke-width="2px"/><text class="caption" text-anchor="middle" pointer-events="none" x="0" y="5" font-size="10px" fill="#FFFFFF" font-family="Helvetica Neue, Helvetica, Arial, sans-serif"> 3</text></g><g class="node" aria-label="graph-node7050" transform="translate(369.53692321076426,-149.53222871964834)"><circle class="b-outline" cx="0" cy="0" r="25" fill="#F79767" stroke="#f36924" stroke-width="2px"/><text class="caption" text-anchor="middle" pointer-events="none" x="0" y="5" font-size="10px" fill="#FFFFFF" font-family="Helvetica Neue, Helvetica, Arial, sans-serif"> 3</text></g><g class="node" aria-label="graph-node7055" transform="translate(78.40774820733893,302.3004871002073)"><circle class="b-outline" cx="0" cy="0" r="25" fill="#F79767" stroke="#f36924" stroke-width="2px"/><text class="caption" text-anchor="middle" pointer-events="none" x="0" y="5" font-size="10px" fill="#FFFFFF" font-family="Helvetica Neue, Helvetica, Arial, sans-serif"> 8</text></g><g class="node" aria-label="graph-node7057" transform="translate(67.78815337928052,144.6965589853143)"><circle class="b-outline" cx="0" cy="0" r="25" fill="#F79767" stroke="#f36924" stroke-width="2px"/><text class="caption" text-anchor="middle" pointer-events="none" x="0" y="5" font-size="10px" fill="#FFFFFF" font-family="Helvetica Neue, Helvetica, Arial, sans-serif"> 10</text></g><g class="node" aria-label="graph-node7060" transform="translate(-66.86452826776414,59.58121480832688)"><circle class="b-outline" cx="0" cy="0" r="25" fill="#F79767" stroke="#f36924" stroke-width="2px"/><text class="caption" text-anchor="middle" pointer-events="none" x="0" y="5" font-size="10px" fill="#FFFFFF" font-family="Helvetica Neue, Helvetica, Arial, sans-serif"> 13</text></g><g class="node" aria-label="graph-node7048" transform="translate(-233.5016464763636,102.72202910076655)"><circle class="b-outline" cx="0" cy="0" r="25" fill="#F79767" stroke="#f36924" stroke-width="2px"/><text class="caption" text-anchor="middle" pointer-events="none" x="0" y="5" font-size="10px" fill="#FFFFFF" font-family="Helvetica Neue, Helvetica, Arial, sans-serif"> 1</text></g><g class="node selected" aria-label="graph-node4" transform="translate(-227.5270117691299,-95.8107398550097)"><circle class="b-outline" cx="0" cy="0" r="25" fill="#C990C0" stroke="#b261a5" stroke-width="2px"/><text class="caption" text-anchor="middle" pointer-events="none" x="0" y="5" font-size="10px" fill="#FFFFFF" font-family="Helvetica Neue, Helvetica, Arial, sans-serif"> 4</text></g><g class="node" aria-label="graph-node1" transform="translate(-276.1668012234832,185.71221789699987)"><circle class="b-outline" cx="0" cy="0" r="25" fill="#C990C0" stroke="#b261a5" stroke-width="2px"/><text class="caption" text-anchor="middle" pointer-events="none" x="0" y="5" font-size="10px" fill="#FFFFFF" font-family="Helvetica Neue, Helvetica, Arial, sans-serif"> 1</text></g><g class="node" aria-label="graph-node0" transform="translate(448.33486860903895,102.15784606211338)"><circle class="b-outline" cx="0" cy="0" r="25" fill="#C990C0" stroke="#b261a5" stroke-width="2px"/><text class="caption" text-anchor="middle" pointer-events="none" x="0" y="5" font-size="10px" fill="#FFFFFF" font-family="Helvetica Neue, Helvetica, Arial, sans-serif"> 0</text></g><g class="node" aria-label="graph-node2" transform="translate(241.51664220676844,-73.54810459167737)"><circle class="b-outline" cx="0" cy="0" r="25" fill="#C990C0" stroke="#b261a5" stroke-width="2px"/><text class="caption" text-anchor="middle" pointer-events="none" x="0" y="5" font-size="10px" fill="#FFFFFF" font-family="Helvetica Neue, Helvetica, Arial, sans-serif"> 2</text></g></g></svg>